<svg width="50" height="44" viewBox="0 0 50 44" fill="none" xmlns="http://www.w3.org/2000/svg">
<rect width="50" height="44" rx="6" fill="url(#paint0_linear_158_38451)"/>
<g clip-path="url(#clip0_158_38451)">
<path d="M33.8357 13.1643C33.9136 13.2422 33.9668 13.3414 33.9888 13.4494C34.0108 13.5574 34.0006 13.6695 33.9595 13.7718L27.4131 30.1371C27.3554 30.2812 27.2591 30.4067 27.1347 30.4996C27.0103 30.5925 26.8627 30.6493 26.7081 30.6637C26.5536 30.6781 26.398 30.6496 26.2586 30.5813C26.1192 30.513 26.0013 30.4076 25.918 30.2766L22.3427 24.6573L16.7233 21.082C16.5921 20.9987 16.4863 20.8808 16.4179 20.7413C16.3494 20.6017 16.3208 20.446 16.3352 20.2912C16.3496 20.1364 16.4065 19.9886 16.4996 19.8641C16.5927 19.7397 16.7184 19.6433 16.8628 19.5858L33.2282 13.0416C33.3305 13.0005 33.4425 12.9902 33.5505 13.0123C33.6585 13.0343 33.7577 13.0875 33.8357 13.1654V13.1643ZM23.4655 24.3288L26.5716 29.209L31.8962 15.898L23.4655 24.3288ZM31.1008 15.1026L17.7898 20.4273L22.6712 23.5323L31.102 15.1026H31.1008Z" fill="white"/>
</g>
<defs>
<linearGradient id="paint0_linear_158_38451" x1="-3.11351e-07" y1="22" x2="47.7978" y2="11.7404" gradientUnits="userSpaceOnUse">
<stop stop-color="#834DD7"/>
<stop offset="0.498521" stop-color="#7670D5"/>
<stop offset="1" stop-color="#58C0D0"/>
</linearGradient>
<clipPath id="clip0_158_38451">
<rect width="18" height="18" fill="white" transform="translate(16 13)"/>
</clipPath>
</defs>
</svg>
